G04 Layer: TopPasteMaskLayer*
G04 EasyEDA Pro v2.2.47.7, 2026-10-08 00:34:34*
G04 Gerber Generator version 0.3*
G04 Scale: 100 percent, Rotated: No, Reflected: No*
G04 Dimensions in millimeters*
G04 Leading zeros omitted, absolute positions, 4 integers and 5 decimals*
G04 Generated by one-click*
G04 Object Configs: Pad,Via,Track,Text,Image,Dimension,BoardOutline,BoardCutout,CopperFilled,SolidRegion,FPCStiffener,Line,PlaneZone,ComponentProperty,ComponentSilkscreen,TearDrop*
G04 Layer Configs: 1,2,3,4,5,6,7,8,9,10,11,13,14,56*
G04 Copper Areas: 0*
%FSLAX45Y45*%
%MOMM*%
%ADD10C,0.254*%
%ADD11C,0.6497*%
G75*


G04 PolygonModel Start*
G36*
G01X247101Y1491102D02*
G01X247101Y1411102D01*
G01X252103Y1406101D01*
G01X274899Y1406101D01*
G01X274899Y1443101D01*
G01X307899Y1443101D01*
G01X307899Y1406101D01*
G01X332102Y1406101D01*
G01X337101Y1411102D01*
G01X337101Y1491102D01*
G01X332102Y1496101D01*
G01X252103Y1496101D01*
G01X247101Y1491102D01*
G37*
G36*
G01X337099Y1252098D02*
G01X337099Y1332098D01*
G01X332097Y1337099D01*
G01X309301Y1337099D01*
G01X309301Y1300099D01*
G01X276301Y1300099D01*
G01X276301Y1337099D01*
G01X252098Y1337099D01*
G01X247099Y1332098D01*
G01X247099Y1252098D01*
G01X252098Y1247099D01*
G01X332097Y1247099D01*
G01X337099Y1252098D01*
G37*
G36*
G01X1987001Y1491102D02*
G01X1987001Y1411102D01*
G01X1992003Y1406101D01*
G01X2014799Y1406101D01*
G01X2014799Y1443101D01*
G01X2047799Y1443101D01*
G01X2047799Y1406101D01*
G01X2072002Y1406101D01*
G01X2077001Y1411102D01*
G01X2077001Y1491102D01*
G01X2072002Y1496101D01*
G01X1992003Y1496101D01*
G01X1987001Y1491102D01*
G37*
G36*
G01X2076999Y1252098D02*
G01X2076999Y1332098D01*
G01X2071997Y1337099D01*
G01X2049201Y1337099D01*
G01X2049201Y1300099D01*
G01X2016201Y1300099D01*
G01X2016201Y1337099D01*
G01X1991998Y1337099D01*
G01X1986999Y1332098D01*
G01X1986999Y1252098D01*
G01X1991998Y1247099D01*
G01X2071997Y1247099D01*
G01X2076999Y1252098D01*
G37*

G04 Pad Start*
G04 Pad End*
G54D10*

M02*

