G04 Layer: TopLayer*
G04 EasyEDA Pro v2.2.47.7, 2026-10-07 14:52:46*
G04 Gerber Generator version 0.3*
G04 Scale: 100 percent, Rotated: No, Reflected: No*
G04 Dimensions in millimeters*
G04 Leading zeros omitted, absolute positions, 4 integers and 5 decimals*
G04 Generated by one-click*
G04 Object Configs: Pad,Via,Track,Text,Image,Dimension,BoardOutline,BoardCutout,CopperFilled,SolidRegion,FPCStiffener,Line,PlaneZone,ComponentProperty,ComponentSilkscreen,TearDrop*
G04 Layer Configs: 1,2,3,4,5,6,7,8,9,10,11,13,14,56*
G04 Copper Areas: 1*
%FSLAX45Y45*%
%MOMM*%
%ADD10C,0.2032*%
%ADD11R,0.86401X0.80648*%
%ADD12R,0.54X0.56566*%
%ADD13R,0.86401X0.8*%
%ADD14C,0.61*%
%ADD15C,0.2518*%
%ADD16C,0.254*%
G75*


G04 Copper Start*
G36*
G01X1259560Y1168400D02*
G01X1261520Y1202048D01*
G01X1267373Y1235242D01*
G01X1277040Y1267531D01*
G01X1290390Y1298480D01*
G01X1307242Y1327670D01*
G01X1327370Y1354706D01*
G01X1350500Y1379222D01*
G01X1376320Y1400887D01*
G01X1404480Y1419409D01*
G01X1434600Y1434536D01*
G01X1466273Y1446064D01*
G01X1499070Y1453837D01*
G01X1532547Y1457750D01*
G01X1566253Y1457750D01*
G01X1599730Y1453837D01*
G01X1632527Y1446064D01*
G01X1664200Y1434536D01*
G01X1694320Y1419409D01*
G01X1722480Y1400887D01*
G01X1748300Y1379222D01*
G01X1771430Y1354706D01*
G01X1791558Y1327670D01*
G01X1808410Y1298480D01*
G01X1821760Y1267531D01*
G01X1831427Y1235242D01*
G01X1837280Y1202048D01*
G01X1839240Y1168400D01*
G01X1837280Y1134752D01*
G01X1831427Y1101558D01*
G01X1821760Y1069269D01*
G01X1808410Y1038320D01*
G01X1791558Y1009130D01*
G01X1771430Y982094D01*
G01X1748300Y957578D01*
G01X1722480Y935913D01*
G01X1694320Y917391D01*
G01X1664200Y902264D01*
G01X1632527Y890736D01*
G01X1599730Y882963D01*
G01X1566253Y879050D01*
G01X1532547Y879050D01*
G01X1499070Y882963D01*
G01X1466273Y890736D01*
G01X1434600Y902264D01*
G01X1404480Y917391D01*
G01X1376320Y935913D01*
G01X1350500Y957578D01*
G01X1327370Y982094D01*
G01X1307242Y1009130D01*
G01X1290390Y1038320D01*
G01X1277040Y1069269D01*
G01X1267373Y1101558D01*
G01X1261520Y1134752D01*
G01X1259560Y1168400D01*
G37*
G54D10*
G01X1259560Y1168400D02*
G02X1839240Y1168400I289840J0D01*
G02X1259560Y1168400I-289840J0D01*
G04 Copper End*

G04 Pad Start*
G54D11*
G01X736600Y1446936D03*
G01X736600Y1296264D03*
G54D12*
G01X736600Y909218D03*
G01X736600Y995782D03*
G54D13*
G01X1066800Y907910D03*
G01X1066800Y1047890D03*
G54D11*
G01X1066800Y1446936D03*
G01X1066800Y1296264D03*
G04 Pad End*

G04 Via Start*
G54D14*
G01X739406Y1446936D03*
G04 Via End*

G04 Track Start*
G54D16*
G01X736600Y1446936D02*
G01X1066800Y1446936D01*
G01X1066800Y907910D02*
G01X737908Y907910D01*
G01X736600Y909218D01*
G01X736600Y995782D02*
G01X736600Y1296264D01*
G01X1066800Y1168400D02*
G01X1549400Y1168400D01*
G01X1066800Y1296264D02*
G01X1066800Y1168400D01*
G01X1066800Y1047890D01*
G04 Track End*

M02*

