G04 Layer: TopPasteMaskLayer*
G04 EasyEDA Pro v2.2.47.7, 2026-10-07 14:52:46*
G04 Gerber Generator version 0.3*
G04 Scale: 100 percent, Rotated: No, Reflected: No*
G04 Dimensions in millimeters*
G04 Leading zeros omitted, absolute positions, 4 integers and 5 decimals*
G04 Generated by one-click*
G04 Object Configs: Pad,Via,Track,Text,Image,Dimension,BoardOutline,BoardCutout,CopperFilled,SolidRegion,FPCStiffener,Line,PlaneZone,ComponentProperty,ComponentSilkscreen,TearDrop*
G04 Layer Configs: 1,2,3,4,5,6,7,8,9,10,11,13,14,56*
G04 Copper Areas: 0*
%FSLAX45Y45*%
%MOMM*%
%ADD10C,0.254*%
%ADD11C,0.8770*%
G75*


G04 PolygonModel Start*
G36*
G01X691601Y1491102D02*
G01X691601Y1411102D01*
G01X696603Y1406101D01*
G01X719399Y1406101D01*
G01X719399Y1443101D01*
G01X752399Y1443101D01*
G01X752399Y1406101D01*
G01X776602Y1406101D01*
G01X781601Y1411102D01*
G01X781601Y1491102D01*
G01X776602Y1496101D01*
G01X696603Y1496101D01*
G01X691601Y1491102D01*
G37*
G36*
G01X781599Y1252098D02*
G01X781599Y1332098D01*
G01X776597Y1337099D01*
G01X753801Y1337099D01*
G01X753801Y1300099D01*
G01X720801Y1300099D01*
G01X720801Y1337099D01*
G01X696598Y1337099D01*
G01X691599Y1332098D01*
G01X691599Y1252098D01*
G01X696598Y1247099D01*
G01X776597Y1247099D01*
G01X781599Y1252098D01*
G37*
G36*
G01X713600Y939000D02*
G01X759600Y939000D01*
G01X763600Y934999D01*
G01X763600Y884936D01*
G01X759600Y880936D01*
G01X713600Y880936D01*
G01X709600Y884936D01*
G01X709600Y934999D01*
G01X713600Y939000D01*
G37*
G36*
G01X713600Y966000D02*
G01X759600Y966000D01*
G01X763600Y970001D01*
G01X763600Y1020064D01*
G01X759600Y1024065D01*
G01X713600Y1024065D01*
G01X709600Y1020064D01*
G01X709600Y970001D01*
G01X713600Y966000D01*
G37*
G36*
G01X1052502Y952739D02*
G01X1080153Y952739D01*
G01X1109528Y925319D01*
G01X1109528Y874992D01*
G01X1103127Y868591D01*
G01X1029528Y868591D01*
G01X1023127Y874992D01*
G01X1023127Y925319D01*
G01X1052502Y952739D01*
G37*
G36*
G01X1051377Y1004303D02*
G01X1079028Y1004303D01*
G01X1108403Y1031723D01*
G01X1108403Y1082050D01*
G01X1102002Y1088451D01*
G01X1028403Y1088451D01*
G01X1022002Y1082050D01*
G01X1022002Y1031723D01*
G01X1051377Y1004303D01*
G37*
G36*
G01X1021801Y1491102D02*
G01X1021801Y1411102D01*
G01X1026803Y1406101D01*
G01X1049599Y1406101D01*
G01X1049599Y1443101D01*
G01X1082599Y1443101D01*
G01X1082599Y1406101D01*
G01X1106802Y1406101D01*
G01X1111801Y1411102D01*
G01X1111801Y1491102D01*
G01X1106802Y1496101D01*
G01X1026803Y1496101D01*
G01X1021801Y1491102D01*
G37*
G36*
G01X1111799Y1252098D02*
G01X1111799Y1332098D01*
G01X1106797Y1337099D01*
G01X1084001Y1337099D01*
G01X1084001Y1300099D01*
G01X1051001Y1300099D01*
G01X1051001Y1337099D01*
G01X1026798Y1337099D01*
G01X1021799Y1332098D01*
G01X1021799Y1252098D01*
G01X1026798Y1247099D01*
G01X1106797Y1247099D01*
G01X1111799Y1252098D01*
G37*

G04 Pad Start*
G04 Pad End*
G54D10*

M02*

